<?xml version="1.0" encoding="UTF-8"?>
<svg version="1.1" viewBox="0 0 768 768" xmlns="http://www.w3.org/2000/svg" xmlns:xlink="http://www.w3.org/1999/xlink">
<defs>
<clipPath id="f">
<rect x=".5" y=".5" width="511" height="511" ry="57" fill-opacity=".67"/>
</clipPath>
<linearGradient id="a">
<stop stop-color="#dbe3db" offset="0"/>
<stop stop-color="#dbe3db" stop-opacity="0" offset="1"/>
</linearGradient>
<linearGradient id="c" x1="342.19" x2="358.08" y1="705.76" y2="523.41" gradientTransform="matrix(1.1571 0 0 1.3167 -91.204 -253.99)" gradientUnits="userSpaceOnUse" xlink:href="#a"/>
<linearGradient id="b" x1="405.26" x2="405.75" y1="118.06" y2="360.92" gradientTransform="matrix(.95303 0 0 .86647 11.575 -4.5016)" gradientUnits="userSpaceOnUse" xlink:href="#a"/>
<filter id="e">
<feGaussianBlur stdDeviation="5.12"/>
</filter>
<clipPath id="g">
<rect width="512" height="512" ry="57" fill="none" stroke="#00fa00" stroke-width="20"/>
</clipPath>
<filter id="d">
<feGaussianBlur stdDeviation="17.92"/>
</filter>
</defs>&gt;
<g transform="translate(90,90)">
<rect x="38" y="56" width="512" height="512" ry="57" filter="url(#d)" stroke="#a8a8a8" stroke-width="5"/>
</g>
<g transform="translate(128,128)" clip-path="url(#f)">
<rect width="512" height="512" ry="57" fill="#00f"/>
<g transform="matrix(.72249 0 0 .72249 -69 2.4116e-6)" clip-path="url(#clipPath4897)">
<rect width="1063" height="708.66" fill="#fff" fill-rule="evenodd" stroke-width="1pt"/>
<rect y="236.22" width="1063" height="472.44" fill="#01017e" fill-rule="evenodd" stroke-width="1pt"/>
<rect y="472.44" width="1063" height="236.22" fill="#fe0101" fill-rule="evenodd" stroke-width="1pt"/>
<path d="m185.1 160.83v198.72c13.61 77.581 49.679 156.52 171.49 196.67 121.14-40.151 159.92-115.69 174.22-198.04v-197.35h-345.71z" fill="#fff" fill-rule="evenodd" stroke-width="1pt"/>
<path d="m198.72 176.48v173.54c12.24 63.29 36.06 149.72 157.88 189.87 121.13-40.15 149.04-126.58 159.92-189.87v-173.54h-317.81z" fill="#fe0101" fill-rule="evenodd" stroke-width="1pt"/>
<path d="m375.65 281.29v27.902h55.804c7.482 0 14.518-3.63 21.777-5.445v52.401c-7.486-1.588-14.805-4.763-22.458-4.763h-54.442v63.97l-37.43-1.361v-62.609h-53.081c-7.978 0-15.425 4.083-23.138 6.124v-55.803c7.259 2.268 14.172 6.805 21.777 6.805h54.442v-27.902h-40.151c-7.036 0-13.157 4.991-19.736 7.486v-53.081c7.486 3.176 14.326 9.527 22.458 9.527h38.11v-23.819c0-11.125-6.352-21.323-9.528-31.985h53.762c-2.722 10.889-8.166 21.442-8.166 32.666v23.138h36.068c9.411 0 18.148-4.99 27.222-7.485v52.401c-8.167-2.722-15.892-8.167-24.5-8.167h-38.79z" fill="#fff" fill-rule="evenodd" stroke-width="1pt"/>
<path d="m306.92 422.84c-31.986-15.993-62.54-7.062-77.156 18.544 22.713 43.384 65.927 78.431 126.84 98.507 60.568-20.076 104.63-55.123 128.79-96.465-18.82-35.903-54.613-31.135-77.751-19.905-16.333-40.152-83.025-38.11-100.72-0.681z" fill="#01017e" fill-rule="evenodd" stroke-width="1pt"/>
</g>
</g>
<g transform="translate(0,38)">
<path d="m214.21 111.21c-45.245 0.18809-68.716 7.7308-64.094 83.553l2.8252 46.345c47.474 5.5124 56.664 18.445 104.36 21.914 68.073 4.9513 67.937 5.4209 130.56-14.384 62.628-19.805 5.8248-65.247 207.32-57.82 4.6033 0.16968 17.314-3.0527 27.462-12.15 5.5817-46.524-2.7842-69.143-66.934-68.876z" color="#000000" fill="url(#b)"/>
<path d="m531.03 495.17c-31.605 19.022-27.601 31.26-37.913 32.573-94.704 12.053-145.98-0.72701-165.8-12.061-59.588-34.078-68.468-13.014-100.22-16.574-20.115-2.2551-59.245 12.984-73.388 44.344 3.4722 27.608 18.111 32.098 44.281 31.986l356.06-1.5268c69.692-0.29885 56.335-8.4926 65.543-56.039-14.772-21.671-13.157 9.109-44.224-30.717z" color="#000000" fill="url(#c)"/>
<rect transform="translate(128,90)" width="512" height="512" ry="57" clip-path="url(#g)" fill="none" filter="url(#e)" stroke="#000" stroke-width="20"/>
</g>
</svg>
